<svg xmlns="http://www.w3.org/2000/svg" xmlns:xlink="http://www.w3.org/1999/xlink" version="1.1" x="0px" y="0px" viewBox="0 0 100 125" enable-background="new 0 0 100 100" xml:space="preserve"><polygon fill-rule="evenodd" clip-rule="evenodd" points="6.598,10.318 5.736,6.656 5.95,5.796 8.663,6.486 15.002,10.146   20.553,14.755 61.318,55.521 54.97,62.958 54.115,62.958 48.15,68.923 40.453,60.373 25.334,41.162 13.703,24.643 9.58,17.499   6.598,10.318 "/><polygon fill-rule="evenodd" clip-rule="evenodd" points="56.319,64.695 55.306,64.224 62.621,55.653 93.896,86.927 94.265,88.52   94.265,90.017 93.248,91.774 92.075,92.951 90.477,93.871 89.118,94.204 86.556,93.794 84.575,92.652 84.058,90.177 83.108,87.871   70.214,76.865 65.145,70.167 63.262,66.905 61.052,64.695 56.319,64.695 "/><text x="0" y="115" fill="#000000" font-size="5px" font-weight="bold" font-family="'Helvetica Neue', Helvetica, Arial-Unicode, Arial, Sans-serif">Created by Tim Reiter</text><text x="0" y="120" fill="#000000" font-size="5px" font-weight="bold" font-family="'Helvetica Neue', Helvetica, Arial-Unicode, Arial, Sans-serif">from the Noun Project</text></svg>